<svg xmlns="http://www.w3.org/2000/svg" viewBox="0 0 373.47 185.14"><defs><style>.cls-1{fill:#ea5b0c;}.cls-2{fill:#d50057;}.cls-3,.cls-4{fill:#fff;}.cls-4{stroke:#fff;stroke-miterlimit:10;}</style></defs><g id="Capa_2" data-name="Capa 2"><g id="Layer_1" data-name="Layer 1"><rect class="cls-1" x="243.83" y="52.91" width="129.64" height="72.73" rx="12"/><rect class="cls-1" y="54.59" width="129.64" height="72.73" rx="12"/><circle class="cls-2" cx="184.78" cy="83.37" r="83.37"/><path class="cls-3" d="M146.39,118.07h-2.76a.21.21,0,0,0-.22.22v5.54c0,.09,0,.13-.13.13h-4.83a.12.12,0,0,1-.13-.13v-5.54a.2.2,0,0,0-.21-.22h-2.76a.2.2,0,0,0-.22.22v14.35a.2.2,0,0,0,.22.21h2.76a.19.19,0,0,0,.21-.21v-5.7a.12.12,0,0,1,.13-.13h4.83c.09,0,.13,0,.13.13v5.7a.2.2,0,0,0,.22.21h2.76a.19.19,0,0,0,.21-.21V118.29A.2.2,0,0,0,146.39,118.07Z"/><path class="cls-3" d="M158.1,117.83c-2.58,0-4.63,1.2-5.39,3.59a12.13,12.13,0,0,0-.41,4,12.2,12.2,0,0,0,.41,4c.76,2.39,2.81,3.58,5.39,3.58s4.63-1.19,5.39-3.58a11.87,11.87,0,0,0,.42-4,11.8,11.8,0,0,0-.42-4C162.73,119,160.69,117.83,158.1,117.83Zm2.33,10.81a2.47,2.47,0,0,1-4.65,0,10.66,10.66,0,0,1-.24-3.18,10.58,10.58,0,0,1,.24-3.17,2.47,2.47,0,0,1,4.65,0,11,11,0,0,1,.24,3.17A11,11,0,0,1,160.43,128.64Z"/><path class="cls-3" d="M183.14,118.07H180.6a.34.34,0,0,0-.35.22l-3.67,8.43h-.09l-3.74-8.43a.33.33,0,0,0-.35-.22h-2.58a.21.21,0,0,0-.22.22v14.35a.2.2,0,0,0,.22.21h2.45a.2.2,0,0,0,.22-.21v-8.33h.09l2.74,6.24a.41.41,0,0,0,.41.28h1.5a.42.42,0,0,0,.41-.28l2.74-6.24h.09v8.33a.19.19,0,0,0,.21.21h2.46a.2.2,0,0,0,.22-.21V118.29A.21.21,0,0,0,183.14,118.07Z"/><path class="cls-3" d="M198.85,125.2v0a3.36,3.36,0,0,0,1.72-3.15c0-2.35-1.5-3.94-4.71-3.94H190.1a.2.2,0,0,0-.22.22v14.35a.2.2,0,0,0,.22.21h5.6c3.2,0,5.13-1.39,5.13-4.3A3.5,3.5,0,0,0,198.85,125.2Zm-5.78-4.41a.12.12,0,0,1,.13-.13h2.26c1.22,0,1.94.63,1.94,1.72a1.7,1.7,0,0,1-1.94,1.74H193.2a.12.12,0,0,1-.13-.14Zm2.57,9.48H193.2a.12.12,0,0,1-.13-.13V126.7a.12.12,0,0,1,.13-.13h2.44a1.86,1.86,0,1,1,0,3.7Z"/><path class="cls-3" d="M214.89,126.77a4.32,4.32,0,0,0,2.63-4.11c0-2.7-2-4.59-5-4.59h-5.89a.2.2,0,0,0-.21.22v14.35a.19.19,0,0,0,.21.21h2.76a.2.2,0,0,0,.22-.21v-5.29a.12.12,0,0,1,.13-.13h2l2.54,5.42a.3.3,0,0,0,.33.21h3.09a.17.17,0,0,0,.15-.26Zm-2.56-2.26h-2.61a.12.12,0,0,1-.13-.13V121a.12.12,0,0,1,.13-.13h2.61a1.85,1.85,0,1,1,0,3.68Z"/><path class="cls-3" d="M228.63,117.83c-2.59,0-4.63,1.2-5.39,3.59a12.13,12.13,0,0,0-.41,4,12.2,12.2,0,0,0,.41,4c.76,2.39,2.8,3.58,5.39,3.58s4.63-1.19,5.39-3.58a11.93,11.93,0,0,0,.41-4,11.87,11.87,0,0,0-.41-4C233.26,119,231.22,117.83,228.63,117.83ZM231,128.64a2.47,2.47,0,0,1-4.65,0,10.66,10.66,0,0,1-.24-3.18,10.58,10.58,0,0,1,.24-3.17,2.47,2.47,0,0,1,4.65,0,11,11,0,0,1,.24,3.17A11,11,0,0,1,231,128.64Z"/><path class="cls-3" d="M137.5,102.44h-2.2a.16.16,0,0,0-.17.17v11.45a.16.16,0,0,0,.17.17h2.2a.17.17,0,0,0,.18-.17v-4.54c0-.07,0-.11.1-.11h3.85c.07,0,.1,0,.1.11v4.54a.17.17,0,0,0,.18.17h2.2a.16.16,0,0,0,.17-.17V102.61a.16.16,0,0,0-.17-.17h-2.2a.17.17,0,0,0-.18.17V107c0,.07,0,.1-.1.1h-3.85c-.07,0-.1,0-.1-.1v-4.43A.17.17,0,0,0,137.5,102.44Z"/><path class="cls-3" d="M157.67,111.56a9.49,9.49,0,0,0,.33-3.22,9.59,9.59,0,0,0-.33-3.23,4.66,4.66,0,0,0-8.6,0,9.59,9.59,0,0,0-.33,3.23,9.49,9.49,0,0,0,.33,3.22,4.66,4.66,0,0,0,8.6,0Zm-6.16-.69a8.63,8.63,0,0,1-.19-2.53,8.67,8.67,0,0,1,.19-2.54,2,2,0,0,1,3.71,0,8.67,8.67,0,0,1,.19,2.54,8.63,8.63,0,0,1-.19,2.53,2,2,0,0,1-3.71,0Z"/><path class="cls-3" d="M171.12,107.42v6.64a.17.17,0,0,0,.18.17h1.95a.17.17,0,0,0,.18-.17V102.61a.17.17,0,0,0-.18-.17h-2a.27.27,0,0,0-.28.17L168,109.34H168l-3-6.73a.28.28,0,0,0-.28-.17h-2.06a.17.17,0,0,0-.18.17v11.45a.17.17,0,0,0,.18.17h2a.17.17,0,0,0,.18-.17v-6.64h.07l2.18,5a.34.34,0,0,0,.33.23h1.2a.34.34,0,0,0,.33-.23l2.18-5Z"/><path class="cls-3" d="M185.36,108.13v0a2.68,2.68,0,0,0,1.37-2.51c0-1.87-1.2-3.14-3.77-3.14h-4.59a.17.17,0,0,0-.18.17v11.45a.17.17,0,0,0,.18.17h4.47c2.55,0,4.09-1.11,4.09-3.43A2.77,2.77,0,0,0,185.36,108.13Zm-4.62-3.52a.1.1,0,0,1,.11-.11h1.8c1,0,1.54.51,1.54,1.37a1.35,1.35,0,0,1-1.54,1.39h-1.8c-.07,0-.11,0-.11-.1Zm2,7.56h-1.94a.1.1,0,0,1-.11-.11v-2.74a.1.1,0,0,1,.11-.1h1.94a1.48,1.48,0,1,1,0,3Z"/><path class="cls-3" d="M200.16,106.1c0-2.15-1.59-3.66-4-3.66h-4.7a.17.17,0,0,0-.18.17v11.45a.17.17,0,0,0,.18.17h2.2a.16.16,0,0,0,.17-.17v-4.22a.1.1,0,0,1,.11-.1h1.58l2,4.32a.24.24,0,0,0,.26.17h2.47c.12,0,.17-.1.12-.21l-2.33-4.64A3.47,3.47,0,0,0,200.16,106.1ZM196,107.57h-2.08c-.07,0-.11,0-.11-.1v-2.72a.1.1,0,0,1,.11-.11H196a1.47,1.47,0,1,1,0,2.93Z"/><path class="cls-3" d="M213.24,111.56a9.56,9.56,0,0,0,.32-3.22,9.66,9.66,0,0,0-.32-3.23,4.66,4.66,0,0,0-8.6,0,9.59,9.59,0,0,0-.33,3.23,9.49,9.49,0,0,0,.33,3.22,4.66,4.66,0,0,0,8.6,0Zm-6.16-.69a8.63,8.63,0,0,1-.19-2.53,8.67,8.67,0,0,1,.19-2.54,2,2,0,0,1,3.71,0,8.67,8.67,0,0,1,.19,2.54,8.63,8.63,0,0,1-.19,2.53,2,2,0,0,1-3.71,0Z"/><path class="cls-3" d="M226.13,114.23a.21.21,0,0,0,.23-.17L227,112h4.12l.68,2.07a.22.22,0,0,0,.23.17h2.25c.12,0,.16-.07.12-.17l-4-11.45a.22.22,0,0,0-.22-.17H228a.22.22,0,0,0-.22.17l-4.06,11.45c0,.1,0,.17.12.17Zm2.93-8.53h.06l1.33,4.13h-2.72Z"/><path class="cls-3" d="M184.24,66.63a16.49,16.49,0,1,0-16.49-16.49A16.51,16.51,0,0,0,184.24,66.63Zm0-27.21a10.72,10.72,0,1,1-10.71,10.72A10.73,10.73,0,0,1,184.24,39.42Z"/><path class="cls-3" d="M149.64,70.74a11.21,11.21,0,1,0-11.2-11.2A11.21,11.21,0,0,0,149.64,70.74Zm0-17.45a6.25,6.25,0,1,1-6.25,6.25A6.25,6.25,0,0,1,149.64,53.29Z"/><path class="cls-3" d="M219.92,70.74a11.21,11.21,0,1,0-11.2-11.2A11.21,11.21,0,0,0,219.92,70.74Zm0-17.45a6.25,6.25,0,1,1-6.25,6.25A6.25,6.25,0,0,1,219.92,53.29Z"/><path class="cls-3" d="M247,94.06c-5.49-12-18.19-19.7-32.36-19.7a38.16,38.16,0,0,0-8.86,1,46,46,0,0,0-42.08,0,38.16,38.16,0,0,0-8.86-1c-14.17,0-26.87,7.73-32.36,19.7a2.89,2.89,0,0,0,5.25,2.41c4.55-9.93,15.19-16.34,27.11-16.34.54,0,1.07,0,1.6.06a39,39,0,0,0-10.77,13.87A2.89,2.89,0,0,0,151,96.47a34,34,0,0,1,13.51-14.88A28.19,28.19,0,0,1,182,96.47a2.88,2.88,0,0,0,2.63,1.68H185a2.87,2.87,0,0,0,2.62-1.68,28.19,28.19,0,0,1,17.52-14.88A34,34,0,0,1,218.6,96.47a2.89,2.89,0,0,0,5.25-2.41,38.82,38.82,0,0,0-10.77-13.87c.53,0,1.06-.06,1.6-.06,11.92,0,22.56,6.41,27.11,16.34A2.89,2.89,0,0,0,247,94.06Zm-62.26-4.39a34,34,0,0,0-13.14-11.42,40.51,40.51,0,0,1,26.28,0A34,34,0,0,0,184.78,89.67Z"/><path class="cls-2" d="M117.89,182.71a.13.13,0,0,1-.13-.14v-3.75c0-.84-.42-1.42-1.23-1.42a1.25,1.25,0,0,0-1.25,1.42v3.75a.13.13,0,0,1-.13.14h-1.24a.13.13,0,0,1-.14-.14v-3.75c0-.84-.42-1.42-1.23-1.42a1.25,1.25,0,0,0-1.24,1.42v3.75a.14.14,0,0,1-.14.14h-1.24a.13.13,0,0,1-.13-.14v-6.24a.12.12,0,0,1,.13-.13h1.24a.13.13,0,0,1,.14.13v.47h0a2,2,0,0,1,1.72-.75,2.09,2.09,0,0,1,1.78.86h0a2.66,2.66,0,0,1,2.08-.86,2.24,2.24,0,0,1,2.37,2.42v4.1a.14.14,0,0,1-.14.14Z"/><path class="cls-2" d="M121.37,181.06a6,6,0,0,1,0-3.22,2.9,2.9,0,0,1,5.36,0,6,6,0,0,1,0,3.22,2.9,2.9,0,0,1-5.36,0Zm3.91-.41a3.86,3.86,0,0,0,.13-1.2,4,4,0,0,0-.13-1.2,1.31,1.31,0,0,0-2.45,0,3.65,3.65,0,0,0-.14,1.2,3.54,3.54,0,0,0,.14,1.2,1.31,1.31,0,0,0,2.45,0Z"/><path class="cls-2" d="M130.66,182.71a.17.17,0,0,1-.17-.14l-2.3-6.24c0-.08,0-.13.11-.13h1.32a.16.16,0,0,1,.16.13l1.44,4.23h0l1.41-4.23a.17.17,0,0,1,.16-.13h1.3c.08,0,.13.05.1.13l-2.29,6.24a.18.18,0,0,1-.18.14Z"/><path class="cls-2" d="M135.94,175a.13.13,0,0,1-.13-.14v-1.17a.13.13,0,0,1,.13-.14h1.24a.14.14,0,0,1,.14.14v1.17a.14.14,0,0,1-.14.14Zm0,7.74a.13.13,0,0,1-.13-.14v-6.24a.12.12,0,0,1,.13-.13h1.24a.13.13,0,0,1,.14.13v6.24a.14.14,0,0,1-.14.14Z"/><path class="cls-2" d="M147.73,182.71a.13.13,0,0,1-.13-.14v-3.75c0-.84-.42-1.42-1.23-1.42a1.25,1.25,0,0,0-1.25,1.42v3.75a.13.13,0,0,1-.13.14h-1.24a.14.14,0,0,1-.14-.14v-3.75c0-.84-.42-1.42-1.23-1.42a1.25,1.25,0,0,0-1.24,1.42v3.75a.13.13,0,0,1-.13.14h-1.25a.13.13,0,0,1-.13-.14v-6.24a.12.12,0,0,1,.13-.13H141a.12.12,0,0,1,.13.13v.47h0a2,2,0,0,1,1.72-.75,2.09,2.09,0,0,1,1.78.86h0a2.65,2.65,0,0,1,2.08-.86,2.24,2.24,0,0,1,2.36,2.42v4.1a.13.13,0,0,1-.14.14Z"/><path class="cls-2" d="M151.48,175a.13.13,0,0,1-.13-.14v-1.17a.13.13,0,0,1,.13-.14h1.25a.13.13,0,0,1,.13.14v1.17a.13.13,0,0,1-.13.14Zm0,7.74a.13.13,0,0,1-.13-.14v-6.24a.12.12,0,0,1,.13-.13h1.25a.12.12,0,0,1,.13.13v6.24a.13.13,0,0,1-.13.14Z"/><path class="cls-2" d="M155.05,181.05a4.93,4.93,0,0,1-.23-1.6,5.42,5.42,0,0,1,.21-1.61,2.89,2.89,0,0,1,5.34,0,5.8,5.8,0,0,1,.22,2,.14.14,0,0,1-.15.14h-4c-.06,0-.09,0-.09.08a1.53,1.53,0,0,0,.1.5,1.43,1.43,0,0,0,1.46,1,1.94,1.94,0,0,0,1.52-.62c.07-.06.14-.08.21,0l.79.7a.12.12,0,0,1,0,.19,3.45,3.45,0,0,1-2.68,1.11A2.64,2.64,0,0,1,155.05,181.05Zm3.93-2.88a1.39,1.39,0,0,0-2.55,0,1.47,1.47,0,0,0-.09.55c0,.06,0,.08.09.08H159c.05,0,.08,0,.08-.08A1.73,1.73,0,0,0,159,178.17Z"/><path class="cls-2" d="M166.66,182.71a.13.13,0,0,1-.13-.14v-3.75c0-.84-.42-1.42-1.23-1.42a1.25,1.25,0,0,0-1.25,1.42v3.75a.13.13,0,0,1-.13.14h-1.24a.14.14,0,0,1-.14-.14v-6.24a.13.13,0,0,1,.14-.13h1.24a.12.12,0,0,1,.13.13v.47h0a2,2,0,0,1,1.71-.75,2.22,2.22,0,0,1,2.26,2.42v4.1a.13.13,0,0,1-.14.14Z"/><path class="cls-2" d="M172.18,182.79c-1.31,0-1.81-.64-1.81-1.91v-3.43s0-.08-.08-.08h-.43a.12.12,0,0,1-.13-.13v-.91a.12.12,0,0,1,.13-.13h.43c.06,0,.08,0,.08-.08v-1.79a.13.13,0,0,1,.14-.13h1.24a.13.13,0,0,1,.14.13v1.79s0,.08.08.08h.86a.13.13,0,0,1,.14.13v.91a.13.13,0,0,1-.14.13H172c-.06,0-.08,0-.08.08v3.38c0,.46.19.61.6.61h.34a.13.13,0,0,1,.14.13v1.08a.14.14,0,0,1-.14.14Z"/><path class="cls-2" d="M174.82,181.06a6,6,0,0,1,0-3.22,2.9,2.9,0,0,1,5.36,0,6.28,6.28,0,0,1,0,3.22,2.9,2.9,0,0,1-5.36,0Zm3.9-.41a3.58,3.58,0,0,0,.13-1.2,3.69,3.69,0,0,0-.13-1.2,1.3,1.3,0,0,0-2.44,0,3.65,3.65,0,0,0-.14,1.2,3.54,3.54,0,0,0,.14,1.2,1.3,1.3,0,0,0,2.44,0Z"/><path class="cls-2" d="M185.75,181.05a5.22,5.22,0,0,1-.23-1.6,5.08,5.08,0,0,1,.22-1.61,2.62,2.62,0,0,1,2.66-1.79,2.65,2.65,0,0,1,2.68,1.79,6.15,6.15,0,0,1,.21,2,.13.13,0,0,1-.15.14h-4s-.08,0-.08.08a1.54,1.54,0,0,0,.09.5,1.43,1.43,0,0,0,1.46,1,2,2,0,0,0,1.53-.62c.07-.06.14-.08.2,0l.8.7c.07.05.07.12,0,.19a3.41,3.41,0,0,1-2.67,1.11A2.65,2.65,0,0,1,185.75,181.05Zm3.93-2.88a1.26,1.26,0,0,0-1.27-.84,1.27,1.27,0,0,0-1.28.84,1.73,1.73,0,0,0-.08.55c0,.06,0,.08.08.08h2.55c.06,0,.09,0,.09-.08A1.47,1.47,0,0,0,189.68,178.17Z"/><path class="cls-2" d="M201.35,182.71a.13.13,0,0,1-.13-.14v-3.75c0-.84-.42-1.42-1.23-1.42s-1.24.58-1.24,1.42v3.75a.14.14,0,0,1-.14.14h-1.24a.14.14,0,0,1-.14-.14v-3.75c0-.84-.42-1.42-1.23-1.42a1.25,1.25,0,0,0-1.24,1.42v3.75a.13.13,0,0,1-.13.14h-1.25a.13.13,0,0,1-.13-.14v-6.24a.12.12,0,0,1,.13-.13h1.25a.12.12,0,0,1,.13.13v.47h0a2,2,0,0,1,1.72-.75,2.09,2.09,0,0,1,1.78.86h0a2.65,2.65,0,0,1,2.08-.86,2.24,2.24,0,0,1,2.36,2.42v4.1a.13.13,0,0,1-.14.14Z"/><path class="cls-2" d="M205.1,185.14A.13.13,0,0,1,205,185v-8.67a.12.12,0,0,1,.13-.13h1.25a.12.12,0,0,1,.13.13v.49h0a2,2,0,0,1,1.73-.77,2.19,2.19,0,0,1,2.26,1.56,7.47,7.47,0,0,1,0,3.68,2.19,2.19,0,0,1-2.26,1.57,2,2,0,0,1-1.73-.77h0V185a.13.13,0,0,1-.13.14Zm3.93-4.47a3.68,3.68,0,0,0,.14-1.22,3.61,3.61,0,0,0-.14-1.21,1.28,1.28,0,0,0-2.41,0,3.61,3.61,0,0,0-.14,1.21,3.68,3.68,0,0,0,.14,1.22,1.29,1.29,0,0,0,2.41,0Z"/><path class="cls-2" d="M212.8,182.71a.13.13,0,0,1-.13-.14v-6.24a.12.12,0,0,1,.13-.13H214a.13.13,0,0,1,.14.13v.55h0a1.89,1.89,0,0,1,1.69-.83,1.94,1.94,0,0,1,1.36.54c.07.07.09.12,0,.19l-.71.9a.13.13,0,0,1-.19,0,1.77,1.77,0,0,0-1-.31c-.85,0-1.23.61-1.23,1.65v3.52a.14.14,0,0,1-.14.14Z"/><path class="cls-2" d="M218.59,181.05a5.22,5.22,0,0,1-.23-1.6,5.08,5.08,0,0,1,.22-1.61,2.62,2.62,0,0,1,2.66-1.79,2.65,2.65,0,0,1,2.68,1.79,6.15,6.15,0,0,1,.21,2,.13.13,0,0,1-.15.14h-4c-.05,0-.08,0-.08.08a1.54,1.54,0,0,0,.09.5,1.43,1.43,0,0,0,1.46,1,2,2,0,0,0,1.53-.62c.07-.06.13-.08.2,0l.8.7c.07.05.07.12,0,.19a3.41,3.41,0,0,1-2.67,1.11A2.65,2.65,0,0,1,218.59,181.05Zm3.93-2.88a1.26,1.26,0,0,0-1.27-.84,1.27,1.27,0,0,0-1.28.84,1.73,1.73,0,0,0-.08.55c0,.06,0,.08.08.08h2.55c.06,0,.08,0,.08-.08A1.49,1.49,0,0,0,222.52,178.17Z"/><path class="cls-2" d="M225.7,181.83a.12.12,0,0,1,0-.19l.77-.81a.12.12,0,0,1,.19,0,3,3,0,0,0,1.9.74c.8,0,1.2-.32,1.2-.77s-.23-.63-1.08-.71L228,180c-1.32-.14-2-.81-2-1.92s.9-2,2.52-2a4,4,0,0,1,2.45.79.13.13,0,0,1,0,.19l-.66.8a.13.13,0,0,1-.19,0,3.13,3.13,0,0,0-1.71-.54c-.64,0-1,.28-1,.67s.23.61,1.06.69l.71.07c1.36.13,2,.84,2,1.9,0,1.3-.95,2.21-2.73,2.21A4,4,0,0,1,225.7,181.83Z"/><path class="cls-2" d="M237,182.71a.14.14,0,0,1-.14-.14v-.47h0a2.14,2.14,0,0,1-1.84.76,2,2,0,0,1-2.19-2c0-1.42,1-2.07,2.61-2.07h1.32c.06,0,.08,0,.08-.08v-.31c0-.74-.35-1.08-1.44-1.08a2.25,2.25,0,0,0-1.49.45.12.12,0,0,1-.19,0l-.5-.89a.14.14,0,0,1,0-.18,3.79,3.79,0,0,1,2.31-.63c2,0,2.72.67,2.72,2.27v4.25a.14.14,0,0,1-.14.14Zm-.17-2.19V180c0-.06,0-.08-.08-.08H235.7c-1,0-1.4.27-1.4.88s.39.81,1.12.81C236.35,181.63,236.86,181.26,236.86,180.52Z"/><path class="cls-2" d="M240.68,182.71a.13.13,0,0,1-.13-.14v-6.24a.12.12,0,0,1,.13-.13h1.25a.12.12,0,0,1,.13.13v.55h0a1.87,1.87,0,0,1,1.68-.83,2,2,0,0,1,1.37.54c.07.07.08.12,0,.19l-.71.9a.13.13,0,0,1-.19,0,1.77,1.77,0,0,0-1-.31c-.85,0-1.23.61-1.23,1.65v3.52a.13.13,0,0,1-.13.14Z"/><path class="cls-2" d="M246.73,175a.13.13,0,0,1-.13-.14v-1.17a.13.13,0,0,1,.13-.14H248a.13.13,0,0,1,.13.14v1.17a.13.13,0,0,1-.13.14Zm0,7.74a.13.13,0,0,1-.13-.14v-6.24a.12.12,0,0,1,.13-.13H248a.12.12,0,0,1,.13.13v6.24a.13.13,0,0,1-.13.14Z"/><path class="cls-2" d="M254.3,182.71a.14.14,0,0,1-.14-.14v-.47h0a2.14,2.14,0,0,1-1.84.76,2,2,0,0,1-2.19-2c0-1.42,1-2.07,2.61-2.07h1.32c.06,0,.08,0,.08-.08v-.31c0-.74-.35-1.08-1.44-1.08a2.25,2.25,0,0,0-1.49.45.12.12,0,0,1-.19,0l-.5-.89a.14.14,0,0,1,0-.18,3.79,3.79,0,0,1,2.31-.63c2,0,2.72.67,2.72,2.27v4.25a.14.14,0,0,1-.14.14Zm-.17-2.19V180c0-.06,0-.08-.08-.08H253c-1,0-1.4.27-1.4.88s.39.81,1.12.81C253.62,181.63,254.13,181.26,254.13,180.52Z"/><path class="cls-2" d="M259.58,182.79c-1.27,0-1.79-.61-1.79-1.87v-7.26a.14.14,0,0,1,.14-.14h1.24a.14.14,0,0,1,.14.14v7.18c0,.45.17.6.56.6h.3a.12.12,0,0,1,.13.13v1.08a.13.13,0,0,1-.13.14Z"/><path class="cls-4" d="M28.71,70.7a7.76,7.76,0,0,1,5.68,2,7.68,7.68,0,0,1,2.07,5.71v5.45a7.76,7.76,0,0,1-.7,3.65,4.17,4.17,0,0,1-2,1.9,4.56,4.56,0,0,1,2.25,2,7.31,7.31,0,0,1,.8,3.75v14.7H32.21V95a3.85,3.85,0,0,0-.72-2.63,3.93,3.93,0,0,0-2.83-.77h-3.4v18.25h-4.5V70.7Zm-3.45,17h3.1a3.83,3.83,0,0,0,2.83-.83A3.88,3.88,0,0,0,32,84.11V79c0-2.64-1.2-4-3.6-4h-3.1Z"/><path class="cls-4" d="M53.92,70.7v4.46H45.57v12.3h5.9v4.45h-5.9v13.5h8.35v4.45H41V70.7Z"/><path class="cls-4" d="M69.77,70.7v4.46h-4.4v34.7h-4.6V75.16h-4.4V70.7Z"/><path class="cls-4" d="M88.18,102.71a8.16,8.16,0,0,1-.63,3.3,7.31,7.31,0,0,1-1.72,2.48A7.5,7.5,0,0,1,83.25,110a9.2,9.2,0,0,1-3.12.52A9.39,9.39,0,0,1,77,110a7.12,7.12,0,0,1-4.25-4,8.16,8.16,0,0,1-.63-3.3V77.86a8.16,8.16,0,0,1,.63-3.3,7,7,0,0,1,1.7-2.45A7.5,7.5,0,0,1,77,70.56,8.93,8.93,0,0,1,80.13,70a8.76,8.76,0,0,1,3.12.56,7.83,7.83,0,0,1,2.58,1.55,7,7,0,0,1,1.72,2.45,8.16,8.16,0,0,1,.63,3.3Zm-11.56,0a3.3,3.3,0,0,0,1,2.58,4.1,4.1,0,0,0,5.05,0,3.3,3.3,0,0,0,1-2.58V77.91a3.28,3.28,0,0,0-1-2.58,4.1,4.1,0,0,0-5.05,0,3.28,3.28,0,0,0-1,2.58Z"/><path class="cls-4" d="M293.23,70.41a7.79,7.79,0,0,1,5.63,2Q301,74.52,301,79.07a11.59,11.59,0,0,1-.48,3.57,18.22,18.22,0,0,1-1.32,3c-.44.73-.95,1.54-1.55,2.42s-1.23,1.8-1.88,2.73-1.28,1.85-1.9,2.75-1.17,1.75-1.67,2.55c-.37.6-.67,1.14-.91,1.63a9.64,9.64,0,0,0-.55,1.42,8.68,8.68,0,0,0-.27,1.5c0,.54-.08,1.17-.08,1.9v3.25H301v4.45H285.78v-7.7a17.16,17.16,0,0,1,.43-3.77,14.92,14.92,0,0,1,1.57-3.93c.44-.73,1-1.56,1.6-2.48s1.29-1.84,2-2.77l2-2.75a29.77,29.77,0,0,0,1.63-2.5,11.82,11.82,0,0,0,1.17-2.8,10.75,10.75,0,0,0,.33-2.65,4.6,4.6,0,0,0-.85-3.15,3.22,3.22,0,0,0-2.45-.9,3.57,3.57,0,0,0-2.56.85,3.33,3.33,0,0,0-.9,2.55v1.2h-4.25v-1.3a7.79,7.79,0,0,1,2-5.68A7.71,7.71,0,0,1,293.23,70.41Z"/><path class="cls-4" d="M320.29,103.12a8.34,8.34,0,0,1-.62,3.3,7.22,7.22,0,0,1-4.31,4,9.2,9.2,0,0,1-3.12.52,9.47,9.47,0,0,1-3.18-.52,7.19,7.19,0,0,1-2.55-1.55,7.55,7.55,0,0,1-1.7-2.48,8.34,8.34,0,0,1-.62-3.3V78.27a8.42,8.42,0,0,1,.62-3.31,7.42,7.42,0,0,1,1.7-2.45A7.82,7.82,0,0,1,309.06,71a9.24,9.24,0,0,1,3.18-.55,9,9,0,0,1,3.12.55,8,8,0,0,1,2.58,1.55A7.21,7.21,0,0,1,319.67,75a8.42,8.42,0,0,1,.62,3.31Zm-11.55-.05a3.29,3.29,0,0,0,1,2.58,4.1,4.1,0,0,0,5.05,0,3.3,3.3,0,0,0,1-2.58V78.32a3.28,3.28,0,0,0-1-2.58,4.1,4.1,0,0,0-5.05,0,3.28,3.28,0,0,0-1,2.58Z"/><path class="cls-4" d="M331.59,70.41a7.79,7.79,0,0,1,5.63,2q2.13,2.06,2.13,6.61a11.59,11.59,0,0,1-.48,3.57,17.5,17.5,0,0,1-1.33,3c-.43.73-1,1.54-1.55,2.42s-1.22,1.8-1.87,2.73-1.28,1.85-1.9,2.75-1.18,1.75-1.68,2.55c-.36.6-.66,1.14-.9,1.63a9.64,9.64,0,0,0-.55,1.42,8.68,8.68,0,0,0-.27,1.5c-.05.54-.08,1.17-.08,1.9v3.25h10.61v4.45H324.14v-7.7a16.58,16.58,0,0,1,.43-3.77,14.58,14.58,0,0,1,1.57-3.93c.44-.73,1-1.56,1.6-2.48l1.95-2.77,2-2.75a27.19,27.19,0,0,0,1.62-2.5,11.48,11.48,0,0,0,1.18-2.8,10.74,10.74,0,0,0,.32-2.65,4.55,4.55,0,0,0-.85-3.15,3.19,3.19,0,0,0-2.45-.9,3.56,3.56,0,0,0-2.55.85,3.33,3.33,0,0,0-.9,2.55v1.2h-4.25v-1.3a7.79,7.79,0,0,1,2-5.68A7.71,7.71,0,0,1,331.59,70.41Z"/><path class="cls-4" d="M358.65,103.12a8.16,8.16,0,0,1-.63,3.3,7.17,7.17,0,0,1-1.72,2.48,7.32,7.32,0,0,1-2.58,1.55,9.2,9.2,0,0,1-3.12.52,9.39,9.39,0,0,1-3.18-.52,7.19,7.19,0,0,1-2.55-1.55,7.4,7.4,0,0,1-1.7-2.48,8.16,8.16,0,0,1-.62-3.3V78.27a8.25,8.25,0,0,1,.62-3.31,7.27,7.27,0,0,1,1.7-2.45A7.82,7.82,0,0,1,347.42,71a9.16,9.16,0,0,1,3.18-.55,9,9,0,0,1,3.12.55,8,8,0,0,1,2.58,1.55A7,7,0,0,1,358,75a8.25,8.25,0,0,1,.63,3.31Zm-11.55-.05a3.29,3.29,0,0,0,1,2.58,4.1,4.1,0,0,0,5.05,0,3.3,3.3,0,0,0,1-2.58V78.32a3.28,3.28,0,0,0-1-2.58,4.1,4.1,0,0,0-5.05,0,3.28,3.28,0,0,0-1,2.58Z"/></g></g></svg>